<svg xmlns="http://www.w3.org/2000/svg" xmlns:xlink="http://www.w3.org/1999/xlink" width="179.528" height="145.37" viewBox="0 0 179.528 145.37"><defs><clipPath id="a"><rect width="179.528" height="145.37" transform="translate(-3462 4735)" fill="#fff" stroke="#707070" stroke-width="1"/></clipPath></defs><g transform="translate(3462 -4735)" clip-path="url(#a)"><g transform="translate(-3426.141 4735)"><g transform="translate(33.351 0)"><path d="M151.084,26.936c-6.717,4.724-14.33,10.079-18.409,18.938-7.085,15.456,14.5,32.314,15.42,33.024a1.192,1.192,0,0,0,1.784-1.493c-.078-.15-7.825-15.2-7.537-25.994.1-3.76,5.364-8.025,10.935-12.541,5.1-4.136,10.886-8.824,14.27-14.308,7.429-12.071-.828-23.941-.912-24.06a1.192,1.192,0,0,0-2.136.94,25.356,25.356,0,0,1-2.846,16.015C159.812,20.8,155.767,23.642,151.084,26.936Z" transform="translate(-131.249 0)" fill="#db380e"/><path d="M208.3,77.965a1.191,1.191,0,0,0-1.14-2.066c-1.141.434-27.943,10.765-27.943,23.248,0,8.6,3.676,13.151,6.36,16.47A12.536,12.536,0,0,1,187.837,119c.843,2.766-1.154,7.766-1.995,9.46a1.192,1.192,0,0,0,1.748,1.508c.461-.32,11.262-7.957,9.325-17.159a22.693,22.693,0,0,0-3.957-8.308c-2.349-3.494-4.046-6.017-1.472-10.678C194.5,88.391,208.16,78.069,208.3,77.965Z" transform="translate(-160.164 -45.706)" fill="#db380e"/></g><g transform="translate(0 76.58)"><path d="M76.431,203.862a4.229,4.229,0,0,0,.627,3.947c2.905,4.034,13.2,6.255,28.98,6.255h0c2.139,0,4.4-.042,6.709-.125,25.234-.9,34.593-8.765,34.979-9.1a1.191,1.191,0,0,0-1.093-2.05c-8.887,2.426-25.482,3.288-36.992,3.288-12.88,0-19.439-.928-21.045-1.613.824-1.131,5.906-3.152,12.2-4.391a1.191,1.191,0,0,0-.23-2.361C96.879,197.715,78.366,198.011,76.431,203.862Z" transform="translate(-64.711 -195.765)" fill="#73a1fb"/><path d="M269.579,192.806a24.9,24.9,0,0,0-10.348,2.719,1.192,1.192,0,0,0,.561,2.242c.11,0,11.1.09,12.1,6.37.882,5.418-10.4,14.2-14.822,17.122a1.192,1.192,0,0,0,.906,2.159c1.049-.225,25.669-5.65,23.066-19.984C279.452,194.651,273.931,192.806,269.579,192.806Z" transform="translate(-173.422 -192.806)" fill="#73a1fb"/><path d="M159.423,248.02a1.193,1.193,0,0,0-.488-1.194l-5.9-4.135a1.2,1.2,0,0,0-.989-.175,116.1,116.1,0,0,1-15.2,2.634,105.473,105.473,0,0,1-11.522.61c-8.96,0-14.819-1.053-15.672-1.825-.113-.217-.077-.315-.057-.37a3.005,3.005,0,0,1,1.521-1.146,1.192,1.192,0,0,0-.693-2.276c-5.922,1.429-8.817,3.427-8.606,5.939.374,4.454,10.69,6.74,19.411,7.344,1.254.086,2.61.129,4.03.129h0c14.5,0,33.092-4.55,33.277-4.6A1.188,1.188,0,0,0,159.423,248.02Z" transform="translate(-80.149 -221.321)" fill="#73a1fb"/><path d="M121.212,280.77a1.191,1.191,0,0,0-.683-2.189c-.794.021-7.765.336-8.253,4.774a4.616,4.616,0,0,0,1.13,3.6c2.5,2.966,9.26,4.73,20.653,5.39,1.348.081,2.717.122,4.07.122,14.484,0,24.24-4.535,24.648-4.728a1.192,1.192,0,0,0,.112-2.095l-7.46-4.554a1.2,1.2,0,0,0-.864-.15c-.047.01-4.784.992-11.932,1.963a38.459,38.459,0,0,1-5.034.277c-7.141,0-15.083-1.167-16.607-1.931A.478.478,0,0,1,121.212,280.77Z" transform="translate(-86.443 -244.513)" fill="#73a1fb"/><path d="M92.217,321.668c33.178-.028,50.985-5.928,54.415-9.641a4.108,4.108,0,0,0,1.242-3.369,5.2,5.2,0,0,0-2.282-3.355,1.2,1.2,0,0,0-1.555.212,1.178,1.178,0,0,0-.008,1.551c.209.269.33.72-.282,1.332-1.371,1.281-15.2,5.169-38.232,6.337-3.155.164-6.464.247-9.834.248-20.62,0-35.71-2.824-37.691-4.47.763-1.1,6.1-2.85,11.778-3.841a1.192,1.192,0,0,0-.364-2.355c-.16.022-.7.054-1.333.093-9.366.572-20.19,1.846-20.754,6.672a4.911,4.911,0,0,0,1.3,3.967c2.53,2.842,9.8,6.621,43.6,6.621Z" transform="translate(-47.281 -260.019)" fill="#73a1fb"/><path d="M184.569,326.215a1.19,1.19,0,0,0-1.373.27c-.049.053-5.037,5.268-20.035,8.332-5.742,1.15-16.52,1.734-32.034,1.734-15.544,0-30.334-.612-30.481-.618a1.192,1.192,0,0,0-.326,2.35,177.411,177.411,0,0,0,36.848,3.668,171.755,171.755,0,0,0,29.4-2.455c17.422-3.054,18.642-11.693,18.685-12.059A1.192,1.192,0,0,0,184.569,326.215Z" transform="translate(-78.702 -273.16)" fill="#73a1fb"/></g></g></g></svg>