<svg xmlns="http://www.w3.org/2000/svg" xmlns:xlink="http://www.w3.org/1999/xlink" width="138" height="113.568" viewBox="0 0 138 113.568"><defs><clipPath id="a"><rect width="138" height="113.568" transform="translate(-2479 7460)" fill="#fff" stroke="#707070" stroke-width="1"/></clipPath></defs><g transform="translate(2479 -7460)" clip-path="url(#a)"><g transform="translate(-2466.784 7460)"><path d="M113.568,56.784a56.79,56.79,0,0,1-106,28.339,56.8,56.8,0,1,1,106-28.339Z" fill="#8f9ed1"/><g transform="translate(2.003 27.387)"><path d="M34.33,147.256H13.417L7.459,179.5a56.342,56.342,0,0,0,5.565,13.343h1.94l2.308-12.488H28.763c13.992,0,17.754-12.562,18.655-18.732A12.8,12.8,0,0,0,34.33,147.256Zm3.034,15.408c-.512,3.5-3.1,10.62-11.028,10.62H18.579l3.467-18.766h7.9C37.64,154.517,37.876,159.167,37.364,162.664Z" transform="translate(-7.459 -135.107)" fill="#f2f2f2"/><path d="M317.5,148.72a13.681,13.681,0,0,0-6.344-1.465H290.246l-8.425,45.587h9.971l2.308-12.488h11.491c6.223,0,10.423-2.485,13.243-5.787A57.216,57.216,0,0,0,317.5,148.72Zm-3.31,13.943c-.512,3.5-3.1,10.62-11.03,10.62h-7.755l3.467-18.766h7.9C314.469,154.517,314.705,159.166,314.193,162.663Z" transform="translate(-208.16 -135.107)" fill="#f2f2f2"/><path d="M178.671,114.306h-12.11l2.273-12.3H158.9l-8.425,45.586h9.93l4.845-26.215H171.6c4.212,0,7.071.9,6.469,4.814s-4.062,21.213-4.062,21.213h10.08S188,128.147,188.6,122.731,184.237,114.306,178.671,114.306Z" transform="translate(-112.081 -102.006)" fill="#f2f2f2"/></g></g></g></svg>