<svg xmlns="http://www.w3.org/2000/svg" xmlns:xlink="http://www.w3.org/1999/xlink" width="71.91" height="60.266" viewBox="0 0 71.91 60.266"><defs><clipPath id="a"><rect width="71.91" height="60.266" transform="translate(-2222 97)" fill="#fff" stroke="#707070" stroke-width="1"/></clipPath></defs><g transform="translate(2222 -97)" clip-path="url(#a)"><path d="M71.91,49.761a30.736,30.736,0,0,1-8.494,2.328A14.659,14.659,0,0,0,69.9,43.94a29.461,29.461,0,0,1-9.348,3.569,14.741,14.741,0,0,0-25.5,10.081,15.18,15.18,0,0,0,.342,3.362A41.728,41.728,0,0,1,5.007,45.531a14.746,14.746,0,0,0,4.53,19.7,14.559,14.559,0,0,1-6.661-1.816v.162A14.81,14.81,0,0,0,14.688,78.066a14.714,14.714,0,0,1-3.865.485A13.035,13.035,0,0,1,8.031,78.3a14.882,14.882,0,0,0,13.775,10.27A29.622,29.622,0,0,1,3.528,94.857,27.612,27.612,0,0,1,0,94.655a41.5,41.5,0,0,0,22.616,6.616c27.128,0,41.959-22.472,41.959-41.95,0-.652-.022-1.281-.054-1.906A29.41,29.41,0,0,0,71.91,49.761Z" transform="translate(-2222 55.076)" fill="#03a9f4"/></g></svg>