<svg xmlns="http://www.w3.org/2000/svg" xmlns:xlink="http://www.w3.org/1999/xlink" width="34.479" height="28.418" viewBox="0 0 34.479 28.418"><defs><clipPath id="a"><rect width="34.479" height="28.418" transform="translate(-2479 4575)" fill="#e63946" stroke="#707070" stroke-width="1"/></clipPath></defs><g transform="translate(2479 -4575)" clip-path="url(#a)"><g transform="translate(-2476.824 4575)"><g transform="translate(0 0)"><path d="M29.5,29.275,1.529,16.159a1.071,1.071,0,0,0-1.287.306,1.1,1.1,0,0,0-.026,1.342l9.2,12.461L.216,42.729A1.1,1.1,0,0,0,.24,44.071a1.066,1.066,0,0,0,.837.407,1.053,1.053,0,0,0,.45-.1L29.5,31.261a1.1,1.1,0,0,0,0-1.985Z" transform="translate(0 -16.06)" fill="#e63946"/></g></g></g></svg>