<svg xmlns="http://www.w3.org/2000/svg" width="462.367" height="351.308" viewBox="0 0 462.367 351.308"><g transform="translate(18 -225)"><circle cx="58" cy="58" r="58" transform="translate(-18 225)" fill="#fff"/><ellipse cx="13.5" cy="15" rx="13.5" ry="15" transform="translate(94 283)" fill="#fff"/><ellipse cx="6.5" cy="7" rx="6.5" ry="7" transform="translate(107 361)" fill="#fff"/><g transform="translate(196.706 478.254) rotate(-40)" fill="none"><path d="M63.284,15.495a10,10,0,0,1,17.432,0l54.9,97.6A10,10,0,0,1,126.9,128H17.1a10,10,0,0,1-8.716-14.9Z" stroke="none"/><path d="M 72 20.39727783203125 L 17.09847259521484 118 L 126.9015274047852 118 L 72.04366302490234 20.40233612060547 C 72.03936004638672 20.40091705322266 72.02313995361328 20.39727783203125 72 20.39727783203125 M 72 10.39729309082031 C 75.40211486816406 10.39729309082031 78.80423736572266 12.09641265869141 80.71575164794922 15.49466705322266 L 135.6172790527344 113.0973892211914 C 139.3669128417969 119.7634124755859 134.5497741699219 128 126.9015274047852 128 L 17.09847259521484 128 C 9.4501953125 128 4.633056640625 119.7634124755859 8.382720947265625 113.0973892211914 L 63.28424835205078 15.49466705322266 C 65.19576263427734 12.09641265869141 68.59788513183594 10.39729309082031 72 10.39729309082031 Z" stroke="none" fill="#fff"/></g><path d="M31.054,8.642a5,5,0,0,1,8.892,0l27.3,53.071A5,5,0,0,1,62.8,69H8.2a5,5,0,0,1-4.446-7.287Z" transform="translate(380.019 388.891) rotate(25)" fill="#ffea60"/></g></svg>