<svg xmlns="http://www.w3.org/2000/svg" xmlns:xlink="http://www.w3.org/1999/xlink" width="28.006" height="21.939" viewBox="0 0 28.006 21.939"><defs><clipPath id="a"><rect width="28.006" height="21.939" transform="translate(-2179 1514)" fill="#616161" stroke="#707070" stroke-width="1"/></clipPath></defs><g transform="translate(2179 -1514)" clip-path="url(#a)"><g transform="translate(-2175.966 1514)"><path d="M10.97,0a10.97,10.97,0,1,0,10.97,10.97A10.97,10.97,0,0,0,10.97,0Zm0,20.372a9.4,9.4,0,1,1,9.4-9.4A9.4,9.4,0,0,1,10.97,20.372Z" fill="#616161"/><g transform="translate(3.918 3.918)"><path d="M79.373,72.321a.784.784,0,0,0-.784.784V78.59H73.1a.784.784,0,1,0,0,1.567h6.268a.784.784,0,0,0,.784-.784V73.1A.784.784,0,0,0,79.373,72.321Z" transform="translate(-72.321 -72.321)" fill="#616161"/></g></g></g></svg>