<svg xmlns="http://www.w3.org/2000/svg" xmlns:xlink="http://www.w3.org/1999/xlink" width="82.767" height="55.413" viewBox="0 0 82.767 55.413"><defs><clipPath id="a"><rect width="82.767" height="55.413" transform="translate(-3622 63)" fill="#fff" stroke="#707070" stroke-width="1"/></clipPath></defs><g transform="translate(3622 -63)" clip-path="url(#a)"><path d="M47.947,0H7.469A7.467,7.467,0,0,0,0,7.467V47.946a7.467,7.467,0,0,0,7.467,7.467H27.432l.034-19.8H22.322A1.214,1.214,0,0,1,21.108,34.4l-.025-6.383A1.214,1.214,0,0,1,22.3,26.8h5.135V20.633c0-7.157,4.371-11.055,10.756-11.055h5.239a1.214,1.214,0,0,1,1.214,1.214v5.382a1.214,1.214,0,0,1-1.213,1.214H40.213c-3.472,0-4.145,1.65-4.145,4.071V26.8H43.7A1.214,1.214,0,0,1,44.9,28.158l-.757,6.383a1.214,1.214,0,0,1-1.205,1.071H36.1l-.034,19.8H47.948a7.467,7.467,0,0,0,7.467-7.467V7.467A7.467,7.467,0,0,0,47.947,0Z" transform="translate(-3608.324 63)" fill="#475993"/></g></svg>