<svg xmlns="http://www.w3.org/2000/svg" xmlns:xlink="http://www.w3.org/1999/xlink" width="91.886" height="64.811" viewBox="0 0 91.886 64.811"><defs><clipPath id="a"><rect width="91.886" height="64.811" transform="translate(-3553 2205)" fill="#fff" stroke="#707070" stroke-width="1"/></clipPath></defs><g transform="translate(3553 -2205)" clip-path="url(#a)"><path d="M33.814,8.326C15.132,8.326,0,23.2,0,41.554A33.283,33.283,0,0,0,23.12,73.08c1.691.313,2.311-.716,2.311-1.6,0-.789-.028-2.88-.042-5.65-9.406,2-11.39-4.458-11.39-4.458-1.539-3.835-3.762-4.861-3.762-4.861-3.063-2.06.237-2.018.237-2.018,3.4.231,5.179,3.424,5.179,3.424C18.668,63,23.568,61.532,25.5,60.684a7.035,7.035,0,0,1,2.142-4.444c-7.51-.831-15.4-3.689-15.4-16.42a12.7,12.7,0,0,1,3.48-8.916,11.626,11.626,0,0,1,.3-8.794s2.832-.89,9.3,3.407a32.421,32.421,0,0,1,16.907,0c6.425-4.3,9.257-3.407,9.257-3.407a11.947,11.947,0,0,1,.338,8.794,12.746,12.746,0,0,1,3.466,8.916c0,12.765-7.9,15.574-15.428,16.391,1.183,1,2.282,3.035,2.282,6.149,0,4.447-.042,8.02-.042,9.1,0,.871.592,1.91,2.325,1.578A33.182,33.182,0,0,0,67.628,41.554C67.628,23.2,52.488,8.326,33.814,8.326Z" transform="translate(-3540.871 2196.674)"/></g></svg>