<svg xmlns="http://www.w3.org/2000/svg" xmlns:xlink="http://www.w3.org/1999/xlink" width="238.253" height="134.805" viewBox="0 0 238.253 134.805"><defs><clipPath id="a"><rect width="167" height="131.554" transform="translate(-3399 4136)" fill="#fff" stroke="#707070" stroke-width="1"/></clipPath><clipPath id="b"><rect width="142.436" height="111.78" transform="translate(-3399 663)" fill="#fff" stroke="#707070" stroke-width="1"/></clipPath></defs><g transform="translate(-824 -2107.446)"><g transform="translate(4223 -2028.554)" clip-path="url(#a)"><path d="M23.394,0a1.979,1.979,0,0,0-2,2.189L31.584,116.523A3.422,3.422,0,0,0,33.9,119.3l43.255,12.01a9.381,9.381,0,0,0,4.237,0l43.386-12.03a3.422,3.422,0,0,0,2.314-2.777L137.3,2.189A1.979,1.979,0,0,0,135.3,0Zm92.2,26.222c-.1,1.074-.263,2.939-.37,4.143l-.269,3c-.108,1.2-.262,2.926-.343,3.826s-.158,1.637-.172,1.637H60.946a1.979,1.979,0,0,0-2,2.189l.942,10.532a2.456,2.456,0,0,0,2.394,2.189h48.9a1.762,1.762,0,0,1,1.781,1.953c-.1,1.074-.266,2.939-.373,4.143l-3.03,33.955c-.108,1.2-.245,2.743-.3,3.419s-1.062,1.493-2.227,1.816l-25.559,7.087-2.151.594c-.018,0-.986-.258-2.151-.581l-25.586-7.1a3.421,3.421,0,0,1-2.314-2.777L47.615,77.762a1.98,1.98,0,0,1,2-2.19H59.832a2.456,2.456,0,0,1,2.394,2.19L62.872,85a3.392,3.392,0,0,0,2.317,2.762l11.968,3.232c1.167.315,2.126.573,2.132.573s.964-.258,2.132-.574l11.99-3.24a3.4,3.4,0,0,0,2.318-2.762l1.3-14.5a1.978,1.978,0,0,0-2-2.19H48.966a2.455,2.455,0,0,1-2.393-2.189l-3.19-35.747c-.107-1.2-.274-3.068-.37-4.143a1.883,1.883,0,0,1,2.024-1.953h68.531A1.882,1.882,0,0,1,115.592,26.222Z" transform="translate(-3394.845 4136)" fill="#dd512a"/></g><g transform="translate(4318.817 1467.472)" clip-path="url(#b)"><g transform="translate(-3367.333 663)"><path d="M150.95,104.3a2.325,2.325,0,0,0-1.721-.764H74.791a2.327,2.327,0,0,0-2.337,2.318q0,.115.01.229l6.979,74.52a2.328,2.328,0,0,0,1.679,2.021l32.567,9.315a2.32,2.32,0,0,0,.647.088,2.4,2.4,0,0,0,.735-.116l27.914-9.315a2.328,2.328,0,0,0,1.582-1.993l6.979-74.52A2.329,2.329,0,0,0,150.95,104.3Z" transform="translate(-72.454 -80.253)" fill="#2196f3"/><g transform="translate(16.293 41.922)"><path d="M170.566,237.622a2.325,2.325,0,0,1-.637-.093l-16.283-4.657a2.327,2.327,0,0,1-1.619-1.672l-2.326-9.315a2.326,2.326,0,1,1,4.487-1.232c.01.035.018.069.026.1l2,8.011,14.353,4.108,14.143-4.047,4.187-37.777H147.3a2.329,2.329,0,0,1,0-4.658h44.2a2.328,2.328,0,0,1,2.326,2.585L189.175,230.9a2.328,2.328,0,0,1-1.675,1.98l-16.283,4.657A2.3,2.3,0,0,1,170.566,237.622Z" transform="translate(-144.977 -186.393)" fill="#fafafa"/><path d="M197.205,273.866H157.66a2.329,2.329,0,0,1,0-4.658h39.545a2.329,2.329,0,0,1,0,4.658Z" transform="translate(-153.007 -250.582)" fill="#fafafa"/></g><g transform="translate(13.967 0)"><path d="M146.256,13.972h-9.3a2.328,2.328,0,0,1-2.326-2.329V2.329A2.328,2.328,0,0,1,136.951,0h9.3a2.329,2.329,0,0,1,0,4.658h-6.979V9.315h6.979a2.329,2.329,0,0,1,0,4.657Z" transform="translate(-134.625 0)" fill="#37474f"/><path d="M229.075,13.972h-9.3a2.329,2.329,0,0,1,0-4.658h3.689l-5.336-5.337A2.329,2.329,0,0,1,219.77,0h9.3a2.329,2.329,0,0,1,0,4.658h-3.689l5.332,5.337a2.329,2.329,0,0,1-1.642,3.978Z" transform="translate(-198.834 0.001)" fill="#37474f"/><path d="M311.909,13.972h-9.3a2.329,2.329,0,0,1,0-4.658h3.689l-5.336-5.337A2.329,2.329,0,0,1,302.6,0h9.3a2.329,2.329,0,0,1,0,4.658H308.22L313.551,10a2.329,2.329,0,0,1-1.642,3.977Z" transform="translate(-263.059 0)" fill="#37474f"/></g></g></g></g></svg>