<svg xmlns="http://www.w3.org/2000/svg" xmlns:xlink="http://www.w3.org/1999/xlink" width="144.837" height="145.096" viewBox="0 0 144.837 145.096"><defs><clipPath id="a"><rect width="144.837" height="145.096" transform="translate(-7596 -580)" fill="#fff" stroke="#707070" stroke-width="1"/></clipPath></defs><g transform="translate(7596 580)" clip-path="url(#a)"><g transform="translate(-7596 -579.87)"><path d="M0,0H144.837V144.837H0Z" fill="#f7df1e"/><path d="M293.7,567.354l11.084-6.708c2.138,3.791,4.083,7,8.749,7,4.472,0,7.292-1.749,7.292-8.554V512.812h13.611v46.471c0,14.1-8.264,20.514-20.32,20.514-10.888,0-17.208-5.639-20.417-12.445" transform="translate(-255.616 -446.318)"/><path d="M664.881,560.67l11.082-6.416c2.918,4.764,6.709,8.264,13.417,8.264,5.64,0,9.236-2.82,9.236-6.709,0-4.666-3.694-6.32-9.917-9.041l-3.4-1.459c-9.82-4.18-16.334-9.43-16.334-20.514,0-10.209,7.778-17.987,19.932-17.987,8.653,0,14.875,3.015,19.347,10.889l-10.6,6.806c-2.334-4.18-4.861-5.833-8.75-5.833-3.986,0-6.514,2.528-6.514,5.833,0,4.083,2.528,5.736,8.361,8.265l3.4,1.458c11.569,4.959,18.084,10.014,18.084,21.388,0,12.251-9.625,18.959-22.556,18.959-12.639,0-20.806-6.028-24.791-13.9" transform="translate(-578.669 -441.092)"/></g></g></svg>