<svg xmlns="http://www.w3.org/2000/svg" xmlns:xlink="http://www.w3.org/1999/xlink" width="92.782" height="58.379" viewBox="0 0 92.782 58.379"><defs><clipPath id="a"><rect width="92.782" height="58.379" transform="translate(-3364 7272)" fill="#fff" stroke="#707070" stroke-width="1"/></clipPath></defs><g transform="translate(3364 -7272)" clip-path="url(#a)"><path d="M53.1,0H5.281A5.281,5.281,0,0,0,0,5.281V53.1a5.281,5.281,0,0,0,5.281,5.281H53.1A5.281,5.281,0,0,0,58.379,53.1V5.281A5.281,5.281,0,0,0,53.1,0ZM18.065,50.409a1.537,1.537,0,0,1-1.537,1.537H9.986A1.537,1.537,0,0,1,8.45,50.409V22.985a1.537,1.537,0,0,1,1.537-1.537h6.542a1.537,1.537,0,0,1,1.537,1.537ZM13.257,18.864a6.215,6.215,0,1,1,6.215-6.215A6.215,6.215,0,0,1,13.257,18.864Zm39,31.669a1.413,1.413,0,0,1-1.413,1.413H43.82a1.413,1.413,0,0,1-1.413-1.413V37.669c0-1.919.563-8.409-5.015-8.409-4.326,0-5.2,4.442-5.38,6.435V50.532A1.413,1.413,0,0,1,30.6,51.946H23.81A1.413,1.413,0,0,1,22.4,50.532V22.862a1.413,1.413,0,0,1,1.413-1.413H30.6a1.413,1.413,0,0,1,1.413,1.413v2.392c1.6-2.407,3.988-4.266,9.064-4.266,11.241,0,11.176,10.5,11.176,16.272V50.532Z" transform="translate(-3346.799 7272)" fill="#0077b7"/></g></svg>