<svg xmlns="http://www.w3.org/2000/svg" xmlns:xlink="http://www.w3.org/1999/xlink" width="21.968" height="15.389" viewBox="0 0 21.968 15.389"><defs><clipPath id="a"><rect width="21.968" height="15.389" transform="translate(-3410 6723)" fill="#616161" stroke="#616161" stroke-width="1"/></clipPath></defs><g transform="translate(3410 -6723)" clip-path="url(#a)"><g transform="translate(-3406.71 6723)"><g transform="translate(5.175 0)"><path d="M143.658,1.056a3.607,3.607,0,0,0-5.1,0l-3.015,3.015a3.641,3.641,0,0,0,0,5.1,3.432,3.432,0,0,0,.725.55l.55-.55a1.239,1.239,0,0,0,.227-1.087,1.742,1.742,0,0,1-.227-.188,1.823,1.823,0,0,1,0-2.55l3.014-3.014a1.8,1.8,0,0,1,2.55,2.55L140.39,6.875a5.191,5.191,0,0,1,.226,2.32c.009-.009.019-.014.028-.023l3.015-3.015A3.607,3.607,0,0,0,143.658,1.056Z" transform="translate(-134.5 0)" fill="#616161"/></g><g transform="translate(0 5.434)"><path d="M9.406,141.782a3.433,3.433,0,0,0-.725-.55l-.55.55a1.239,1.239,0,0,0-.227,1.087,1.739,1.739,0,0,1,.227.188,1.823,1.823,0,0,1,0,2.55l-3.248,3.248a1.8,1.8,0,0,1-2.55-2.55l2.226-2.226a5.19,5.19,0,0,1-.226-2.32c-.009.009-.019.014-.028.023L1.057,145.03a3.607,3.607,0,0,0,5.1,5.1l3.248-3.248A3.639,3.639,0,0,0,9.406,141.782Z" transform="translate(0 -141.231)" fill="#616161"/></g></g></g></svg>