<svg xmlns="http://www.w3.org/2000/svg" xmlns:xlink="http://www.w3.org/1999/xlink" width="256.601" height="144.821" viewBox="0 0 256.601 144.821"><defs><clipPath id="a"><rect width="256.601" height="144.821" transform="translate(-2690 5969)" fill="#fff" stroke="#707070" stroke-width="1"/></clipPath></defs><g transform="translate(2690 -5969)" clip-path="url(#a)"><g transform="translate(-2634.11 5969)"><path d="M144.821,72.411a73.134,73.134,0,1,1-.1-3.807Q144.823,70.5,144.821,72.411Z" fill="#f2f2f2"/><path d="M84.073,99.342V80.516L67.769,71.1l-16.3,9.413V99.342l16.3,9.413Z" transform="translate(-15.284 -21.116)" fill="#3b8739"/><path d="M182.3,96.486l10.625,6.136L182.3,108.757l-16.3-9.413V80.517L182.3,71.1l9.88,5.707a72,72,0,0,1,1.841,12.91l-6.041,3.488V86.65L182.3,83.372l-5.681,3.278v6.558Z" transform="translate(-49.297 -21.117)" fill="#333"/><path d="M191.011,98.166V94.511l-3.165-1.827-3.165,1.827v3.654l3.165,1.828Z" transform="translate(-54.847 -27.526)" fill="#66a060"/><path d="M28.479,80.517v24.826l-10.873-6.2V86.413l-5.429-3.136L6.747,86.413V99.14L.573,102.663A73.071,73.071,0,0,1,1.883,77.047L12.177,71.1Z" transform="translate(0 -21.117)" fill="#333"/><rect width="32.607" height="18.826" transform="translate(52.483 49.985) rotate(59.999)" fill="#6da75d"/><path d="M51.465,103.319l5.6-9.129-5.6-9.7Z" transform="translate(-15.284 -25.093)" fill="#55a344"/><path d="M85.525,89.928l5.435-9.413L74.656,71.1Z" transform="translate(-22.172 -21.116)" fill="#639d57"/><path d="M130.236,40.065V65.042l-5.465-3.157L108.465,71.3V90.126l16.306,9.413,16.3-9.413V45.867Zm-.03,43.783-5.435,3.139-5.435-3.139V77.574l5.435-3.139,5.435,3.139Z" transform="translate(-32.212 -11.899)" fill="#333"/><g transform="translate(55.078 84.46)"><path d="M108.79,142.107a3.171,3.171,0,0,0-3.264-2.752c-2.944,0-4.96.384-4.96,2.016s5.728,1.632,7.9,2.272,4.1,2.3,3.136,5.248-3.9,3.264-8.448,3.264a5.28,5.28,0,0,1-5.568-5.248h2.56s-.32,2.3,2.688,2.688,5.884.6,6.272-1.728c.512-3.072-9.728-1.536-10.624-4.544-.757-2.541-.32-5.888,4.8-6.4s7.936,1.748,7.936,5.12Z" transform="translate(-84.061 -125.103)" fill="#66a060"/><path d="M78.345,149.141,84,152.408a4.265,4.265,0,0,0,6.4-3.694V132.452H88.1v15.621A2.329,2.329,0,0,1,84.6,150.09l-3.95-2.28V131.138L95.09,122.8l14.438,8.335V147.81L95.09,156.145l-4.159-2.4-2.716,1.1,6.875,3.969,16.744-9.668V129.807L95.09,120.14l-16.744,9.668v19.334Z" transform="translate(-78.345 -120.14)" fill="#66a060"/></g></g></g></svg>