<svg xmlns="http://www.w3.org/2000/svg" xmlns:xlink="http://www.w3.org/1999/xlink" width="147" height="142.033" viewBox="0 0 147 142.033"><defs><clipPath id="a"><rect width="147" height="142.033" transform="translate(-1309 2432)" fill="#fff" stroke="#707070" stroke-width="1"/></clipPath><linearGradient id="b" x1="0.13" y1="0.12" x2="0.796" y2="0.782" gradientUnits="objectBoundingBox"><stop offset="0" stop-color="#387eb8"/><stop offset="1" stop-color="#366994"/></linearGradient><linearGradient id="c" x1="0.191" y1="0.206" x2="0.907" y2="0.884" gradientUnits="objectBoundingBox"><stop offset="0" stop-color="#ffe052"/><stop offset="1" stop-color="#ffc331"/></linearGradient></defs><g transform="translate(1309 -2432)" clip-path="url(#a)"><g transform="translate(-1306.889 2432)"><path d="M71.037.081C34.791.081,37.054,15.8,37.054,15.8l.04,16.284H71.683v4.889H23.356S.163,34.343.163,70.915,20.407,106.19,20.407,106.19H32.488V89.219s-.651-20.244,19.921-20.244H86.715s19.274.311,19.274-18.628V19.032S108.915.081,71.037.081ZM51.964,11.032a6.223,6.223,0,1,1-6.223,6.223,6.217,6.217,0,0,1,6.223-6.223Z" transform="translate(-0.163 -0.081)" fill="url(#b)"/><path d="M109.467,178.523c36.246,0,33.982-15.718,33.982-15.718l-.04-16.284H108.821v-4.889h48.326s23.194,2.63,23.194-33.942S160.1,72.414,160.1,72.414H148.015V89.385s.651,20.244-19.921,20.244H93.789s-19.274-.311-19.274,18.628v31.316s-2.926,18.951,34.952,18.951Zm19.072-10.95a6.223,6.223,0,1,1,6.223-6.223,6.217,6.217,0,0,1-6.223,6.223Z" transform="translate(-37.564 -36.489)" fill="url(#c)"/></g></g></svg>