<svg xmlns="http://www.w3.org/2000/svg" xmlns:xlink="http://www.w3.org/1999/xlink" width="238" height="238" viewBox="0 0 238 238"><defs><clipPath id="a"><rect width="208" height="157.727" transform="translate(-2507 3313)" fill="#fff" stroke="#707070" stroke-width="1"/></clipPath></defs><g transform="translate(-205 -1175)" opacity="0.91"><g transform="translate(205 1175)" fill="#fff" stroke="#616161" stroke-width="1"><circle cx="119" cy="119" r="119" stroke="none"/><circle cx="119" cy="119" r="118.5" fill="none"/></g><g transform="translate(2727 -2112)" clip-path="url(#a)"><g transform="translate(-2481.836 3313)"><path d="M157.744,242.344a19.775,19.775,0,0,1-8.872,16.43H8.892a19.716,19.716,0,0,1,10.844-36.145H138.029A19.775,19.775,0,0,1,157.744,242.344Z" transform="translate(-0.072 -137.192)" fill="#455a64"/><path d="M157.748,333.244a19.775,19.775,0,0,1-19.716,19.716H19.739A19.716,19.716,0,0,1,8.9,316.814h139.98A19.776,19.776,0,0,1,157.748,333.244Z" transform="translate(-0.076 -195.232)" fill="#607d8b"/><path d="M54.938,366.2a3.286,3.286,0,0,1-.066-6.572h.066a3.286,3.286,0,0,1,0,6.572Z" transform="translate(-31.857 -221.615)" fill="#ffc107"/><path d="M349,355.646a6.572,6.572,0,1,1,6.572-6.572A6.572,6.572,0,0,1,349,355.646Z" transform="translate(-211.046 -211.063)" fill="#4caf50"/><g transform="translate(19.794 105.152)"><path d="M89.188,366.2a3.286,3.286,0,0,1-.066-6.572h.066a3.286,3.286,0,0,1,0,6.572Z" transform="translate(-72.758 -326.767)" fill="#ffc107"/><path d="M54.938,280.574A3.286,3.286,0,0,1,54.872,274h.066a3.286,3.286,0,0,1,0,6.572Z" transform="translate(-51.652 -274.002)" fill="#ffc107"/></g><path d="M349,270.022a6.572,6.572,0,1,1,6.572-6.572A6.572,6.572,0,0,1,349,270.022Z" transform="translate(-211.046 -158.298)" fill="#4caf50"/><path d="M89.188,280.574A3.286,3.286,0,0,1,89.122,274h.066a3.286,3.286,0,0,1,0,6.572Z" transform="translate(-52.963 -168.85)" fill="#ffc107"/><path d="M139.478,24.1A40.706,40.706,0,0,0,102.064,0,40.22,40.22,0,0,0,61.549,36.372a21.6,21.6,0,0,0-18.8,21.135A21.687,21.687,0,0,0,64.71,78.866h74.709a27.825,27.825,0,0,0,28.193-27.385A27.825,27.825,0,0,0,139.478,24.1Z" transform="translate(-26.37 0)" fill="#bbdefb"/></g></g></g></svg>