<svg xmlns="http://www.w3.org/2000/svg" xmlns:xlink="http://www.w3.org/1999/xlink" width="238" height="238" viewBox="0 0 238 238"><defs><clipPath id="a"><rect width="199.886" height="147.526" transform="translate(-3507 6004)" fill="#1d3557" stroke="#707070" stroke-width="1"/></clipPath></defs><g transform="translate(-205 -1175)"><g transform="translate(205 1175)" fill="#fff" stroke="#616161" stroke-width="1"><circle cx="119" cy="119" r="119" stroke="none"/><circle cx="119" cy="119" r="118.5" fill="none"/></g><g transform="translate(3730.814 -4791.211)" clip-path="url(#a)"><g transform="translate(-3468.55 6004)"><g transform="translate(0)"><path d="M139.517,89.881a38,38,0,0,0-25.111,66.462c6,6,5.459,18.833,5.322,18.97a2.26,2.26,0,0,0,.682,1.774,2.518,2.518,0,0,0,1.638.682h34.8a2.26,2.26,0,0,0,1.638-.682,2.594,2.594,0,0,0,.682-1.774c0-.136-.682-12.965,5.322-18.97l.409-.409a37.882,37.882,0,0,0-25.384-66.052Zm21.836,62.914c-.136.136-.409.409-.409.546-5.322,5.732-6.278,15.148-6.414,19.652h-30.16c-.136-4.5-1.092-14.33-6.824-20.2a33.231,33.231,0,1,1,43.808,0Z" transform="translate(-77.912 -58.083)" fill="#1d3557"/><path d="M204.194,117.269a2.32,2.32,0,1,0,0,4.64,24.841,24.841,0,0,1,24.838,24.838,2.32,2.32,0,1,0,4.64,0A29.355,29.355,0,0,0,204.194,117.269Z" transform="translate(-142.726 -75.782)" fill="#1d3557"/><path d="M185.44,345.636h-30.3a5.732,5.732,0,1,0,0,11.464H185.3a5.886,5.886,0,0,0,5.868-5.732A5.766,5.766,0,0,0,185.44,345.636Zm0,6.687h-30.3a1.076,1.076,0,0,1-1.092-1.092,1,1,0,0,1,1.092-1.092H185.3a1.076,1.076,0,0,1,1.092,1.092A.973.973,0,0,1,185.44,352.323Z" transform="translate(-108.823 -223.357)" fill="#1d3557"/><path d="M189.163,384.6h-21.29a5.732,5.732,0,1,0,0,11.464h21.29a5.766,5.766,0,0,0,5.732-5.732A5.679,5.679,0,0,0,189.163,384.6Zm0,6.687h-21.29a1.076,1.076,0,0,1-1.092-1.092,1,1,0,0,1,1.092-1.092h21.29a1.092,1.092,0,1,1,0,2.184Z" transform="translate(-117.05 -248.534)" fill="#1d3557"/><path d="M204.194,20.471a2.3,2.3,0,0,0,2.32-2.32V2.32a2.32,2.32,0,0,0-4.64,0V18.151A2.392,2.392,0,0,0,204.194,20.471Z" transform="translate(-142.726)" fill="#1d3557"/><path d="M295.043,32.373a2.2,2.2,0,0,0-3.139.546l-8.734,13.1a2.248,2.248,0,0,0,.546,3.275,2.2,2.2,0,0,0,1.228.409,2.178,2.178,0,0,0,1.911-1.092l8.734-13.1A2.115,2.115,0,0,0,295.043,32.373Z" transform="translate(-194.953 -20.636)" fill="#1d3557"/><path d="M110.249,47.786a2.2,2.2,0,0,0,1.228-.409,2.391,2.391,0,0,0,.682-3.275L103.7,30.863a2.366,2.366,0,0,0-3.958,2.593L108.2,46.694A2.264,2.264,0,0,0,110.249,47.786Z" transform="translate(-76.485 -19.263)" fill="#1d3557"/><path d="M51.936,107.362,38.152,99.856a2.4,2.4,0,0,0-3.139.955,2.179,2.179,0,0,0,.955,3.139l13.784,7.506a3.212,3.212,0,0,0,1.092.273,2.251,2.251,0,0,0,2.047-1.228A2.4,2.4,0,0,0,51.936,107.362Z" transform="translate(-34.685 -64.374)" fill="#1d3557"/><path d="M348.29,100.812a2.4,2.4,0,0,0-3.139-.955l-13.92,7.506a2.4,2.4,0,0,0-.955,3.139,2.252,2.252,0,0,0,2.047,1.228,2.571,2.571,0,0,0,1.092-.273l13.92-7.506A2.4,2.4,0,0,0,348.29,100.812Z" transform="translate(-225.546 -64.374)" fill="#1d3557"/></g></g></g></g></svg>