<svg xmlns="http://www.w3.org/2000/svg" xmlns:xlink="http://www.w3.org/1999/xlink" width="46.36" height="30" viewBox="0 0 46.36 30"><defs><clipPath id="a"><rect width="33.659" height="21.884" transform="translate(-2542 6843)" fill="#616161" stroke="#707070" stroke-width="1"/></clipPath></defs><g transform="translate(-1601 -9.5)"><g transform="translate(4155.701 -6830.653)" clip-path="url(#a)"><g transform="translate(-2536.112 6843)"><g transform="translate(0 0)"><path d="M21.459,17.4l-2.426-1.618-2.157-1.438a.955.955,0,0,0-1.283.208L14.259,16.27a.95.95,0,0,1-1.213.252,15.538,15.538,0,0,1-4.339-3.344A15.649,15.649,0,0,1,5.363,8.839a.95.95,0,0,1,.252-1.213L7.33,6.291a.955.955,0,0,0,.208-1.283L6.145,2.918,4.483.426A.955.955,0,0,0,3.2.136L1.28,1.286A2.341,2.341,0,0,0,.217,2.662c-.524,1.911-.63,6.126,6.125,12.881s10.969,6.649,12.88,6.125A2.341,2.341,0,0,0,20.6,20.6l1.15-1.916A.955.955,0,0,0,21.459,17.4Z" transform="translate(0 0)" fill="#616161"/><path d="M217.753,48.3a6.421,6.421,0,0,1,6.414,6.414.377.377,0,1,0,.755,0,7.177,7.177,0,0,0-7.169-7.169.377.377,0,1,0,0,.755Z" transform="translate(-205.302 -44.909)" fill="#616161"/><path d="M217.753,89.062a4.155,4.155,0,0,1,4.15,4.15.377.377,0,0,0,.755,0,4.911,4.911,0,0,0-4.905-4.905.377.377,0,0,0,0,.755Z" transform="translate(-205.302 -83.402)" fill="#616161"/><path d="M217.753,129.821a1.889,1.889,0,0,1,1.887,1.887.377.377,0,0,0,.755,0,2.644,2.644,0,0,0-2.641-2.641.377.377,0,0,0,0,.755Z" transform="translate(-205.302 -121.898)" fill="#616161"/></g></g></g><line y2="30" transform="translate(1601.5 9.5)" fill="none" stroke="#707070" stroke-width="1"/></g></svg>